<svg width="42.284649mm" height="15.033911mm" viewBox="0 0 42.284651 15.03391" xmlns="http://www.w3.org/2000/svg"><path d="M40.6252.0V5.413C39.914 4.60302 39.025 4.1684 37.8199 4.1684c-2.5485.0-4.0697 2.3114-4.0697 5.4328.0 3.2399 1.2446 5.413 3.9709 5.413 1.1261.0 2.1731-.49389 2.9436-1.5804l.15805 1.3631h1.4619V.1979zm-2.3707 5.5118c.96803.0 1.7978.49389 2.3707 1.3434v5.176c-.57291.86925-1.3829 1.6595-2.5682 1.6595-1.6397.0-2.509-1.3829-2.509-4.0894.0-2.746.98778-4.0894 2.7065-4.0894zm-11.24-1.3434c1.8768.0 2.9436.98778 3.7338 2.6868l.31608-2.4695h2.8843v1.2841h-1.6397v7.843h1.6397v1.2841h-5.413v-1.2841h2.1138V9.1271C29.97779 6.8355 28.83198 5.6896 27.23178 5.6896h-.0988V7.922h-1.3434L25.55251 4.3857c.45438-.11853.889-.21731 1.4619-.21731zM25.7614 12.525V7.5268c0-2.0546-1.3039-3.3585-3.8919-3.3585-1.0273.0-2.1336.19756-3.4177.65194l.45438 1.2644c1.0668-.37536 2.0151-.53342 2.7065-.53342 1.5409.0 2.4694.55316 2.4694 2.0743v.84949h-1.5409c-3.1411.0-4.8599 1.2051-4.8599 3.3387.0 1.936 1.2644 3.2004 3.3584 3.2004 1.3434.0 2.509-.49389 3.2597-1.4619.27658.94827 1.0075 1.3631 1.8965 1.4817l.41487-1.1853c-.59267-.1778-.84949-.49389-.84949-1.3236zm-4.3067 1.2446c-1.3631.0-1.9953-.67169-1.9953-1.9756.0-1.3434.82973-2.1731 3.1214-2.1731h1.5014v2.667c-.61242.92852-1.6002 1.4817-2.6275 1.4817zM11.4187.0396 9.7592.2174v14.58h1.6595V7.2112c.55316-.80997 1.62-1.7187 2.7855-1.7187 1.2446.0 1.8175.5334 1.8175 1.778v7.5269h1.6595V7.2508c0-1.9361-.889-3.0819-2.9238-3.0819-1.2446.0-2.509.57291-3.3387 1.6595zm-1.6595 10.984c0-2.588-1.857-3.477-3.9906-4.0894-2.588-.75072-3.4177-1.3434-3.4177-2.509.0-1.3631 1.2248-2.0151 2.7263-2.0151 1.1458.0 2.2916.37536 3.2597 1.2248L9.3642 2.5286C8.2184 1.54082 6.875.9679 5.018.9679 2.4103.9679.6125 2.4298.6125 4.4844c0 2.1534 1.6792 3.1411 4.3857 3.9314 2.3312.67169 2.9633 1.3236 2.9633 2.6472.0 1.7187-1.5014 2.5287-3.1609 2.5287-1.6595.0-2.825-.57291-3.7733-1.4619L0 13.2954c1.1458 1.1063 2.7855 1.7187 4.7809 1.7187 3.1609.0 4.9784-1.6397 4.9784-3.9906z" fill="#fff" stroke-linecap="round" stroke-width=".147" id="path1"/></svg>